# Gato low-poly para OpenGL / Assimp
# Coloca este archivo junto con gato.mtl dentro de Models/

mtllib gato.mtl
o Gato

usemtl CatBody

# Cabeza (caja)
v -0.75 1.20 0.45
v  0.75 1.20 0.45
v  0.75 2.10 0.45
v -0.75 2.10 0.45
v -0.75 1.20 -0.45
v  0.75 1.20 -0.45
v  0.75 2.10 -0.45
v -0.75 2.10 -0.45

# Cuerpo
v -0.65 0.00 0.40
v  0.65 0.00 0.40
v  0.65 1.35 0.40
v -0.65 1.35 0.40
v -0.65 0.00 -0.40
v  0.65 0.00 -0.40
v  0.65 1.35 -0.40
v -0.65 1.35 -0.40

# Oreja izquierda
v -0.70 2.05 0.25
v -0.20 2.05 0.25
v -0.45 2.75 0.25
v -0.70 2.05 -0.25
v -0.20 2.05 -0.25
v -0.45 2.75 -0.25

# Oreja derecha
v 0.20 2.05 0.25
v 0.70 2.05 0.25
v 0.45 2.75 0.25
v 0.20 2.05 -0.25
v 0.70 2.05 -0.25
v 0.45 2.75 -0.25

# Pata delantera izquierda
v -0.58 -0.75 0.25
v -0.25 -0.75 0.25
v -0.25 0.25 0.25
v -0.58 0.25 0.25
v -0.58 -0.75 -0.25
v -0.25 -0.75 -0.25
v -0.25 0.25 -0.25
v -0.58 0.25 -0.25

# Pata delantera derecha
v 0.25 -0.75 0.25
v 0.58 -0.75 0.25
v 0.58 0.25 0.25
v 0.25 0.25 0.25
v 0.25 -0.75 -0.25
v 0.58 -0.75 -0.25
v 0.58 0.25 -0.25
v 0.25 0.25 -0.25

# Pata trasera izquierda
v -0.58 -0.75 -0.25
v -0.25 -0.75 -0.25
v -0.25 0.25 -0.25
v -0.58 0.25 -0.25
v -0.58 -0.75 -0.65
v -0.25 -0.75 -0.65
v -0.25 0.25 -0.65
v -0.58 0.25 -0.65

# Pata trasera derecha
v 0.25 -0.75 -0.25
v 0.58 -0.75 -0.25
v 0.58 0.25 -0.25
v 0.25 0.25 -0.25
v 0.25 -0.75 -0.65
v 0.58 -0.75 -0.65
v 0.58 0.25 -0.65
v 0.25 0.25 -0.65

# Cola (prisma largo)
v 0.45 0.75 -0.40
v 0.75 0.75 -0.40
v 0.75 0.95 -0.40
v 0.45 0.95 -0.40
v 1.55 1.20 -0.40
v 1.75 1.35 -0.40
v 1.65 1.55 -0.40
v 1.45 1.40 -0.40
v 0.45 0.75 -0.60
v 0.75 0.75 -0.60
v 0.75 0.95 -0.60
v 0.45 0.95 -0.60
v 1.55 1.20 -0.60
v 1.75 1.35 -0.60
v 1.65 1.55 -0.60
v 1.45 1.40 -0.60

# Cabeza
f 1 2 3 4
f 5 8 7 6
f 1 5 6 2
f 4 3 7 8
f 1 4 8 5
f 2 6 7 3

# Cuerpo
f 9 10 11 12
f 13 16 15 14
f 9 13 14 10
f 12 11 15 16
f 9 12 16 13
f 10 14 15 11

# Oreja izquierda
f 17 18 19
f 20 22 21
f 17 20 21 18
f 18 21 22 19
f 19 22 20 17

# Oreja derecha
f 23 24 25
f 26 28 27
f 23 26 27 24
f 24 27 28 25
f 25 28 26 23

# Patas delanteras
f 29 30 31 32
f 33 36 35 34
f 29 33 34 30
f 32 31 35 36
f 29 32 36 33
f 30 34 35 31

f 37 38 39 40
f 41 44 43 42
f 37 41 42 38
f 40 39 43 44
f 37 40 44 41
f 38 42 43 39

# Patas traseras
f 45 46 47 48
f 49 52 51 50
f 45 49 50 46
f 48 47 51 52
f 45 48 52 49
f 46 50 51 47

f 53 54 55 56
f 57 60 59 58
f 53 57 58 54
f 56 55 59 60
f 53 56 60 57
f 54 58 59 55

# Cola: dos prismas formando una cola levantada
f 61 62 63 64
f 69 72 71 70
f 61 69 70 62
f 64 63 71 72
f 61 64 72 69
f 62 70 71 63

f 65 66 67 68
f 73 76 75 74
f 65 73 74 66
f 68 67 75 76
f 65 68 76 73
f 66 74 75 67
